<?xml version="1.0" encoding="UTF-8"?><svg id="Layer_2" xmlns="http://www.w3.org/2000/svg" width="334.44" height="494.21" viewBox="0 0 334.44 494.21"><defs><style>.cls-1{fill:#28a8d2;}</style></defs><g id="Layer_1-2"><g><path class="cls-1" d="M72.45,17.66c1.29-3.9,1.86-6.35,2.9-8.58,1.46-3.1,4.25-3.64,7.22-2.61,2.85,.99,4.32,2.93,3.26,6.21-1.21,3.72,.64,6.1,3.87,7.59,5.4,2.48,10.85,4.87,17.42,7.81-1.55-6.05-3.13-11.52-4.28-17.07-.43-2.06-.62-4.81,.39-6.41C106.04,.14,110.8-.32,115.65,.14c4.18,.4,6.99,2.35,8.59,6.46,10.92,28.06,18.7,56.9,22.05,86.87,.18,1.58,.69,3.13,1.04,4.69l1.51,.06c.84-5.67,1.94-11.31,2.47-17,1.36-14.46,5.33-28.05,12.13-40.9,2.11-3.98,4.83-6.01,9.11-5.16,4.03,.8,8.18,1.73,11.83,3.51,4.85,2.37,5.09,5.1,3.36,10.31-3.25,9.76-6.22,19.63-8.99,29.54-.76,2.73-.42,5.77-.59,8.67,.44,.14,.88,.29,1.33,.43,1.61-2.75,3.52-5.38,4.79-8.28,6.87-15.73,18.45-26.63,33.82-33.87,4.75-2.24,9.23-4.82,8.67-11.44-.08-.89,2.82-2.94,4.25-2.86,2.5,.13,5.53,.88,7.21,2.53,1.54,1.52,1.59,4.55,2.43,7.38,3.42,.39,5.8-1.67,7.06-4.62,1.7-4,4.1-4.65,7.91-3.17,3.87,1.5,5.13,3.89,3.7,7.79-.51,1.39-.8,2.86-1.24,4.49,2.87,1.76,5.82,3.29,8.46,5.23,5.14,3.77,8.64,8.74,9.88,15.1,1.66,8.49-6.08,15.97-14.56,14.08-.48-.11-1.08-.12-1.42-.41-2.96-2.53-6.52-4.67-8.65-7.78-4.16-6.04-9.76-7.99-16.44-7.06-11.97,1.68-20.52,8.33-25.48,19.31-2.74,6.07-1.31,10.39,4.25,14.24,5.61,3.89,11.48,7.41,16.94,11.5,7.95,5.95,14.79,12.91,18.46,22.49,.43,1.13,2.32,2.47,3.48,2.43,7.48-.26,14.99-.55,22.41-1.47,7.7-.95,14.47-3.9,18.07-11.57,1.5-3.2,4.14-3.06,6.77-1.82,3.49,1.65,4.91,4.61,3.68,8.27-.88,2.62-2.45,5.01-4.39,8.84,3.22-1.3,5.34-1.94,7.27-2.96,10.59-5.62,15.38-4.92,20.54,3.17,5.4,8.47,3.73,18.6-4.01,24.38-.79,.59-1.58,1.18-2.63,1.96,3.51,4.7,5.02,9.54,1.33,14.13,4.04,2.59,8.86,4.34,11.42,7.79,1.71,2.29,.79,7.13,0,10.58-2.11,9.14-4.02,10.4-13.01,10.12,1.43,5.95,6.31,12.5-2.24,16.95-5.97,3.11-9.68,2.14-14.18-3.82-6.86,2.72-11.06-.27-13.13-7.28-.98-3.3-3.2-3.05-5.25-.96-3.65,3.73-4.09,8.39-4.13,13.41-.06,7.95-.71,15.91-1.27,23.85-.13,1.79-.55,3.75-1.45,5.26-4.73,7.91-5.57,16.55-6.44,25.53-.76,7.8-3.68,15.49-6.37,22.97-1.74,4.84-2.57,9.01-1.1,14.32,4.22,15.18,2.25,30.37-4.38,44.36-10.11,21.34-21.07,42.29-32.17,63.14-7.11,13.36-14.7,26.52-22.92,39.22-4.29,6.62-10.03,12.45-15.79,17.93-13.8,13.12-29.94,16.26-48.08,10.37-26.35-8.54-46.07-25.35-61.35-48-4.56-6.76-9.48-13.29-14.56-19.67-6.8-8.55-12.47-17.67-16.01-28.06-.86-2.52-1.86-5.01-3.08-7.37-11.4-22-22.61-44.1-34.41-65.89-7.79-14.39-11.28-29.1-9.24-45.6,1.16-9.4,.61-19.37-1.17-28.7-3.69-19.37-1.3-37.85,5.64-55.89,3.81-9.9,8.23-19.62,13.12-29.03,3.92-7.53,10.14-13.32,18.09-16.61,10.19-4.21,16.59-11.73,21.21-21.45,4-8.41,8.2-16.79,13.19-24.63,7.67-12.05,17.64-22.11,29.35-30.37,1.99-1.4,3.6-2.58,2.67-5.62-4.09-13.4-28.43-28.49-42.25-25.88-2.58,.49-5.13,1.43-7.53,2.52-4.95,2.26-8.76,.79-10.56-4.32-2.27-6.45,.71-13.14,8.03-16.83,3.21-1.62,5.42-2.94,5.04-7.22-.34-3.74,2.1-6.25,6.05-6.59,3.83-.33,5.18,1.89,5.69,5.4,.25,1.75,1.58,3.34,2.98,6.1ZM219.55,193.47c6.32-7.58,15.3-10.6,24.17-13.95-2.07,0-3.97,.4-5.78,1.05-5.86,2.12-11.68,4.34-17.51,6.52,1.01-1.71,1.62-4.31,3.1-4.97,4.66-2.07,9.64-3.44,14.53-4.98,.81-.25,1.91-.22,2.68,.13,3.95,1.81,7.82,2.16,12.15,1.09,5.78-1.43,11.76-1.98,17.61-3.13,16.84-3.3,33.6-6.85,48.65-15.76,7.87-4.66,10.11-12.11,5.88-20.35-3.41-6.65-6.27-7.61-12.7-3.74-6.01,3.62-12.35,5.7-20.7,5.4,2.43-.47,3.62-.7,3.66-.71,1.21-3.09,2.13-5.35,2.98-7.64,.9-2.42,2.05-4.83,2.41-7.34,.14-.96-1.42-2.67-2.56-3.11-.63-.24-2.47,1.22-2.96,2.28-3.06,6.69-8.73,9.85-15.37,11.68-3.46,.95-7.01,1.54-10.52,2.3,.02,.32,.03,.65,.05,.97h10.62l.02,1.25c-19.12-2.16-38.1-3.09-56.63,6.64,5.91-7.67,18.58-4.99,20.14-17.23-1.97,.57-3.48,1.01-5.04,1.47,.51-2.49,1.06-5.18,1.56-7.64-3.64-3.78-7.01-7.28-10.02-10.41-2.24,2.95-3.86,5.09-5.48,7.23,0-3.65,1.12-7.62-.34-10.04-1.26-2.09-5.43-2.44-8.32-3.55,.02,.26,.03,.51,.05,.77-1.76-2.09-3.52-4.18-5.66-6.72-.58,2.45-.97,4.15-1.47,6.27-1.5-2.33-1.14-4.58-1.75-6.52-2.57-8.27-3.26-17.19,2.87-24.52,5.1-6.11,10.59-12.22,19-13.8,4.2-.79,8.6-1.48,12.79-1.04,5.71,.6,11.21,2.37,12.64,9.35,.13,.65,1.81,.99,2.77,1.47,.22-.33,.43-.65,.65-.98-.87-2.16-1.74-4.32-2.62-6.49,.39-.19,.78-.37,1.17-.56,1.6,3,3.63,5.85,4.68,9.03,1.11,3.37,2.97,3.98,6.02,3.36,7.05-1.43,9.94-9.03,5.06-15.16-4.01-5.03-8.66-9.77-15.3-11.62-1.37-.38-2.7-.95-4.43-1.56,1.78-3.46,3.31-6.44,4.89-9.53-2.4-.85-4.2-1.49-4.94-1.76-3.6,2.59-6.23,5.37-9.45,6.61-5.46,2.1-6.88,.69-6.61-4.99,.05-1.09-.28-2.2-.48-3.61-2.37,.14-4.46,.26-6.68,.38-.51,6.25-4.18,9.76-8.89,12.72-5.32,3.36-10.55,6.9-15.56,10.7-7.72,5.84-11.91,14.25-16.34,22.35,2.92,1.11,5.2,1.98,7.49,2.84-.08,.21-.16,.42-.25,.62-2.58-.56-5.17-1.12-7.75-1.68-.06,.34-.11,.68-.17,1.01l3.76,1.55c-5.08-1.83-7.12,.88-8.32,5.08,1.36,1.16,2.63,2.23,3.89,3.31-.14,.17-.27,.33-.41,.5-1.38-.8-2.76-1.61-3.32-1.93-2.81,.93-4.85,1.61-6.89,2.29-.65-2.14-1.88-4.3-1.83-6.43,.1-4.64,1.01-9.26,1.25-13.91,.14-2.57-.4-5.18-.62-7.58-.16-.05,.97,.28,2.5,.72-.11-1.32-.48-2.23-.21-2.89,2.2-5.35,4.59-10.63,6.74-16,.58-1.46,1.14-3.34,.71-4.72-1.39-4.46-13.64-7.29-17.13-4.1-.48,.44-.56,1.3-.83,1.98,2.75,.42,5.14,.78,7.53,1.14q-8.24-.64-11.93,6.91c-.29,.6-.55,1.21-.8,1.83-4.84,11.9-6.01,24.54-7.31,37.14-.13,1.25,1.13,2.64,1.75,3.96l.1-.18c-.7,1.53-1.39,3.07-2.11,4.59-1.1,2.35-1.95,4.89-3.46,6.95-.76,1.04-2.77,1.09-4.12,1.77-4.28,2.16-8.54,4.36-12.76,6.64-.91,.49-2.09,1.32-2.26,2.17-.41,2.07-1.26,2.51-3.29,2.24-1.08-.15-2.38,.69-3.47,1.29-2.2,1.21-2.88,3.42-4.08,5.43-1.37,2.31-5.61,2.91-8.71,4.3,.83,1.09,1.38,1.81,1.92,2.51-1.5,.19-2.62,.33-3.74,.47,1.53,3.21-2.39,3.26-3.08,5.28-.79,2.31-2.26,4.39-3.09,6.69-.29,.81,.81,2.76,.59,2.87-5.22,2.69-5.29,8.29-6.96,12.77-1.32,3.53-1.98,7.68,4.28,8.2,3.51,.29,6.91,1.8,10.36,2.77-4.05,.05-7.87-.89-11.72-1.72-1.16-.25-2.39-.16-3.59-.23,0,1.25-.19,2.53,.02,3.74,.42,2.34,1.06,4.63,1.37,5.94,5.78,1.5,10.97,2.85,16.16,4.19-.02,.25-.03,.49-.05,.74h-16.15c4.02,5.41,8.77,.33,12.74,2.65-3.88,.77-7.29,1.45-10.5,2.08-1.17,5.65-2.3,11.13-3.42,16.57,2.39,.17,4.11,.29,5.84,.41-.06,.24-.12,.49-.17,.73-2.2,.77-4.39,1.53-6.59,2.3,.17,.47,.34,.93,.52,1.4h15.17c-4.75,1.98-9.09,3.78-13.38,5.56,4.94,7,12.26,4.47,19.05,4.74-1.47,.61-2.94,1.23-4.36,1.83,.43,8.76,.02,17.6,6.43,24.75-4.42-4-8-8.23-8.31-14.57-.29-5.82-5.77-9.65-11.39-8.31-2.98,.71-6.33,1.22-8.69,2.95-5.06,3.7-12.65,4.83-13.97,12.67-.07,.44-.23,.86-.41,1.46-.34-1.16-.62-2.12-.75-2.55-1.99,1.11-3.71,2.82-5.56,2.97-13.64,1.15-23.47,10.54-35.07,16.04-1.73,.82-2.63,3.52-3.76,5.44-3.21,5.47-6.11,11.13-9.59,16.42-1.91,2.91-3.15,5.41-1.3,8.74,.51,.92,.71,2.24,.52,3.29-.72,4-2.17,7.93-2.35,11.94-.17,3.67,.95,7.39,1.5,11.09-.21,.19-.42,.38-.63,.56-1.98-3.12-3.96-6.23-5.89-9.29-2.28,3.17-1.19,12.33,1.82,15.46,.62,.64,1.68,1.25,1.76,1.96,.59,5.85,4.77,8.28,8.65,10.19,1,4.83,1.95,9.42,2.9,14.01,.38-.08,.76-.15,1.14-.23,.11-.74,.23-1.49,.41-2.66,1.44,2.43,2.66,4.49,3.89,6.56l1.23-.41c-2.65-8.1-5.3-16.2-7.95-24.29l1.12-.32c1.08,3.17,2.18,6.34,3.24,9.52,1.59,4.8,4.36,9.59,4.44,14.42,.13,7.74,.95,14.42,8.43,18.5,.26-.62,.51-1.22,.76-1.83l-.18,.13c3.03,.84,5.71,6.98,4.81,11.02-1.12-3.06-2.23-6.12-3.35-9.17-.46,.16-.93,.32-1.39,.48-.87,9.43,7.47,16.12,7.62,25.24,.51-.15,1.02-.3,1.53-.45l-4.36-13.91c4.14,4.25,7.12,9.03,6.81,15.24-.35,6.86,2.13,12.48,6.92,17.34,5.31,5.38,10.19,11.19,15.62,16.45,6.1,5.91,8.75,13.48,11.47,21.15,.86,2.44,1.97,5.1,3.76,6.84,6.75,6.59,13.31,13.54,20.89,19.07,12.05,8.79,24.92,16.75,40.72,15.86,13.24-.75,24.92-5.24,32.35-17.26,3.63-5.87,7.23-11.75,10.88-17.61,.21-.33,.77-.43,1.36-.74,.6,1.41,1.12,2.64,2.16,5.08,8.24-15.78,15.72-30.7,23.76-45.31,7.68-13.95,15.96-27.58,24.02-41.4-.38-.69-.82-1.49-1.18-2.13,1.1-.17,2.09-.33,3.29-.52-3.35-3.69-.5-6.22,.74-9.08,1.62-3.74,3.24-7.54,4.23-11.47,.89-3.54,.96-7.29,1.33-10.95,.64-6.25,2.29-12.77-4.51-17.11-.43-.28-.44-1.21-.65-1.84-.49-.73-.97-1.45-1.46-2.18-7.03,.59-1.5-6.82-5.26-8.5-1.89,2.38-3.67,4.62-5.49,6.92-.34-3.81-.49-6.71-5.83-7.43-3.31-.45-5.91-5.5-10.47-2.04v4.03c-1.04-1.33-1.64-2.21-2.36-2.99-.81-.9-1.61-2.24-2.61-2.46-4.15-.91-7.04-3.24-9.29-6.75-.7-1.09-2.21-2.35-3.34-2.35-3.81,0-3.81,.21-3.89-3.87-1.3,.86-2.69,1.29-3.21,2.21-2.1,3.74-4.13,7.55-5.83,11.49-2.66,6.17-1.6,11.78,3.59,16.2,5.38,4.58,8.29,10.06,8.47,17.29,.13,5.36,2.82,7.49,8.31,8.08,1.98,.22,4.1,.1,5.91,.78,1.82,.68,3.34,2.16,4.99,3.29-.28,.35-.55,.69-.83,1.04-2.21-3.91-6-3.58-9.65-3.79-6.85-.39-9.03-2.47-9.9-9.22-.11-.83-.32-1.65-.33-2.47-.04-7.89-5.59-12.05-11.55-15.91l5.94,7.88,.03-.03c-1.45-.75-3.3-1.17-4.27-2.32-3.08-3.69-5.97-4.7-9.31,.03,1.5-3.89,3.72-7.2,4.4-10.79,1.74-9.29,5.65-17.57,9.85-25.92,4.73-9.42,3.83-19.31-.8-28.62-1.41-2.84-4.3-4.94-6.51-7.38-.53,.25-1.06,.51-1.59,.76-.36,2.32-.71,4.64-.92,5.99,2.19,2.53,3.76,4.34,5.32,6.15l-1.2,2.21c-5.18-3.76-7.04-11.08-4.92-18.04,1.1-3.62,1.66-7.41,2.24-10.09,3.16-3.63,5.81-6.95,8.74-9.98,4.49-4.66,3.1-10.96,4.84-16.39,1.9-5.92,2.8-12.17,4.84-18.03,.69-1.98,3.52-3.22,5.38-4.8-.85,2.25-1.68,4.5-2.55,6.74-1.14,2.94-2.32,5.87-3.48,8.8,.41,.16,.83,.31,1.24,.47,2.63-4.81,5.26-9.62,7.89-14.43Zm2.34,92.52v-.02c-.72,3.27,1.48,3.52,3.79,3.7,1.16,.09,2.31,.3,3.47,.45,1.96,.25,3.94,.78,5.86,.61,1.08-.1,2.06-1.37,3.09-2.11,.18,.26,.35,.51,.53,.77-1.13,1.23-2.26,2.45-4.02,4.37,2.06-.57,3.08-.85,4.97-1.37-2.59,2.42-4.39,4.11-7.03,6.58,2.94,1.38,5.52,3.62,7.91,3.44,2.6-.2,5.02-2.66,7.52-4.13-.59,1.34-1.99,2.07-2.33,3.15-.33,1.04,.22,3.4,.74,3.51,3.72,.8,7.94,.7,10.12-2.54,2.16-3.22,4.9-6.02,7.06-9.26,4.11-6.18,5.51-12.49,5.72-19.47,.34-11.18-.85-21.85-8.6-30.87-1.44-1.68-1.87-4.6-1.97-6.98-.21-5.13-1.15-9.55-6.49-11.82-5.51-2.34-9.66-.39-13.21,3.84,1.36-4.6,4.88-6.4,9.17-5.85,3.37,.43,7.23,1.3,9.69,3.38,2.14,1.8,2.64,5.56,4.3,9.49v-9.57c1.82,9.2-1.07,19.33,6.8,26.45,.88-1.01,1.76-2.02,2.64-3.03,.43,1.39,1.37,2.85,1.19,4.16-.38,2.76-1.34,5.43-2.06,8.14,.42,.08,.83,.16,1.25,.25,3.72-9.5,7.23-19.04,4.35-31.01-.89,2.01-1.2,2.71-1.5,3.4-.42-.04-.83-.08-1.25-.11,.56-6.86,1.11-13.73,1.75-21.63,.51,2.8,.85,4.67,1.42,7.8,.89-3.43,1.47-5.63,2.02-7.84,1.23-4.93,5.99-4.26,9.28-5.11,1.48-.38,4.01,2.53,5.76,4.25,.87,.86,.73,2.89,1.65,3.53,1.69,1.17,4.3,2.82,5.66,2.24,2.18-.93,3.66-3.51,5.17-5.11,.62,1.6,2.92,4.62,2.19,6.34-1.32,3.08,.5,2.97,2,3.32,5.3,1.23,9.59-3.17,8.03-8.43-1.39-4.7-3.26-9.26-5.21-14.69,2.72,1.5,4.77,2.66,6.86,3.77,4.1,2.18,6.86,1.21,8.83-3.05,4.36-9.41,2.25-13.97-7.71-16.68-.64-.17-1.31-.54-1.93-.46-1.77,.23-3.51,.7-5.27,.98-6.13,.99-12.26,1.93-18.38,2.92-1.08,.17-2.12,.6-3.2,.77-5.72,.88-11.44,1.75-17.17,2.51-.65,.09-1.4-.56-2.1-.87l-.03-1.29c5.16-.8,10.34-1.52,15.49-2.41,8.15-1.41,16.34-2.67,24.38-4.58,2.51-.6,5.24-2.67,6.61-4.85,1.05-1.67,.58-4.75-.2-6.84-.27-.72-3.66-.83-5.38-.35-6.97,1.95-13.85,4.23-20.76,6.39-2.45,.29-4.9,.58-7.36,.87-1.15,0-2.35-.23-3.44,.02-9.52,2.19-19.04,4.38-28.52,6.74-3.57,.89-7.01,3.19-10.52,3.2-7.72,.02-19.05,7.03-21.46,14.25-.06,.19-.52,.26-.78,.39-.33-.66-.66-1.31-.98-1.97-4.09,18.2-17.02,32.01-23.37,49.48,2.23,.44,4.06,.8,5.81,1.15-.11,1.77-.22,3.63-.27,4.42,3.27-1.83,6.65-3.72,10.02-5.62-1.68,4.59-3.37,9.18-5.16,14.06,1.52,.07,2.72,.13,3.41,.16-2.21,2.83-4.45,5.72-7.25,9.31h3.86c-3.22,10.87,1.28,22.51,8.89,23.21-.49,2.81,3.36,7.5,7.11,8.2,1.18,.22,2.56-.64,3.85-1.01-.49-1.25-.67-2.79-1.53-3.67-1.37-1.39-3.37-2.16-4.8-3.51-2.71-2.54-2.23-5.51,1.03-7.83ZM92.02,146.71c.21,.06,.41,.13,.62,.19-.28,1.39-.69,2.76-.81,4.16-.12,1.34,.05,2.7,.09,4.05,.99-.73,2.19-1.3,2.94-2.22,1.51-1.85,2.85-3.86,4.15-5.87,4.35-6.72,3.96-15.58,10.04-21.59,6.95-6.88,13.67-14,20.36-21.14,2-2.14,4.62-4.48,5.13-7.09,2.07-10.63,.71-20.97-5.5-30.11-3.67-5.39-7.15-5.63-12.83-2.18-11.03,6.69-21.15,14.54-29.61,24.27-3.23,3.71-6.03,8.06-7.94,12.57-3.07,7.26-4.79,15.1-8,22.29-1.52,3.41-1.36,4.83,3.79,6.08-4,2.35-6.5,3.87-9.05,5.32-8.34,4.74-16.72,9.43-25.04,14.21-2.55,1.46-5.61,2.64-7.35,4.81-4.75,5.94-9.38,12.08-13.23,18.62-9.09,15.45-13.36,32.58-16.06,50.14-.15,.95-.1,2.74,.18,2.81,3.44,.82,1.9,3.14,1.8,5.14-.22,4.43-.29,8.87-.37,13.31,0,.41,.29,.83,.6,1.64,.45-1.06,.74-1.74,1.37-3.21,.42,11.76-4.65,23.17,2.54,34.26,2.41-2.02,5.66-3.59,7.04-6.16,2.1-3.92-.86-8.76,1.48-13.24,1.17-2.24,.2-5.59,.2-8.44,.38,0,.77,0,1.15,.01,.35,4.57,.69,9.14,1.04,13.71,.27,0,.54-.01,.81-.02,0-3.32,0-6.63,0-9.95s0-6.52,0-9.78c1.29,4.63,2.56,9.35,2.48,14.05-.08,4.62-1.55,9.21-2.41,13.81,.43,.11,.85,.22,1.28,.33,1.94-14.16,6.64-27.67,7.77-42.09-1.69,7.64,8.75,15.09,.54,22.95,4.66-3.05,9.33-6.1,14.01-9.15-.61,1.21-1.2,2.37-1.97,3.91,8.28-.3,10.72-6.94,14.64-11.5,3.45-4,2.72-6.64-2.1-9.71,5.23,.69,7.12,3.49,6.45,8.74,2.97-1.19,5.31-2.14,7.95-3.2-.94,1.37-1.8,2.61-3.25,4.72,5.4-2.87,9.88-5.13,10.14-9.86,2.8-1.39,5.75-1.87,6.73-3.52,3.77-6.36,7.09-13,10.22-19.71,2.6-5.58,2.28-5.92-3.36-8.31,8.61-3.34,8.85-4.59,2.61-13.31,3.88-8.03,2.98-11.22-4.86-17.17,2.13-6.46,1.83-7.7-3.78-12.3-2.24-1.83-2.63-3.63-1.13-6.03,1.14-1.83,2.38-3.65,3.22-5.62,3.03-7.06,1.72-11.89-4.06-15.75,4.52,1.22,6.16,1.95,6.35,5.75,.31,6.23-.52,12.51-.83,18.77-.06,1.26,.09,2.53,.14,3.8,.45-.03,.91-.07,1.36-.1,.78-2.03,1.55-4.06,2.33-6.09Zm7.66-99.6c-.28,5,4.31,8.91,8.55,7.8,.08,.78,.32,1.6,.22,2.38-.7,5.67,.23,6.65,5.9,5.88,1.3-.18,2.54-.73,3.82-1.05,6.53-1.64,11.16-.09,14.08,6.06,2.31,4.88,3.98,10.28,4.72,15.62,1.27,9.15,.51,17.89-8.57,23.67-2.28,1.45-3.61,4.38-5.38,6.63,.25,.1,.5,.21,.75,.31,7.37-3.82,14.74-7.64,22.92-11.88-1.99-1.43-3.6-2.6-4.56-3.29,.19-1.9,.86-4.14,.54-6.23-1.35-8.88-2.89-17.73-4.56-26.56-1.76-9.3-1.86-9.28-10.8-9.27,2.67-.73,5.33-1.46,9-2.46-1.69-3.49-3.2-6.62-4.32-8.94,.29-1.29,1.08-2.66,.77-3.72-2.36-8.25-4.89-16.44-7.46-24.63-.33-1.06-.96-2.39-1.84-2.84-1.48-.75-.62-1.32-.74-2.26-.46-3.72-1.58-7.58-5.9-9.04-4.29-1.45-9.95-.03-11.74,3.15-.48,.85-.5,2.17-.27,3.17,1.85,7.84,3.84,15.66,5.7,23.5,.1,.43-.62,1.06-1.04,1.73-.76-.26-1.42-.38-1.97-.69-6.67-3.64-13.32-7.3-19.98-10.96-3.89-2.14-6.22-5.1-4.5-9.73,1.25-3.36-.18-5.09-3.24-4.92-3.08,.18-3.44,2.6-3.39,5.48,.03,1.78-1.21,4.26-2.66,5.13-.94,.57-3.64-.8-4.9-1.99-1.22-1.16-1.46-3.28-2.37-4.84-.77-1.31-1.9-2.41-2.87-3.61-1.26,1.53-3.34,2.93-3.6,4.61-.55,3.62-.17,7.39-.17,11.1-1.17-.63-1.18-1.65-1.56-1.81-2.31-.97-9.15,2.51-10.51,5.21-1.94,3.87-1.11,8.9,2.11,10.72,1.2,.68,3.81,1,4.35,.33,2.94-3.62,7.16-3.33,10.95-4.01,9.98-1.79,18.07,2.61,26.02,8,2.43,1.65,3.62,6.38,8.49,4.23ZM17.74,292.11c-2.14-.42-3.93-1.18-5.58-.94-.96,.14-2.2,1.8-2.38,2.92-.25,1.57,.6,3.29,.55,4.93-.06,2.17-.54,4.33-.9,6.99q9.35-8.49,9.52-11.25c-1.25,1.08-2.5,2.15-3.76,3.23-.24-.21-.47-.42-.71-.63,1.05-1.69,2.1-3.38,3.26-5.26Z"/><path class="cls-1" d="M196.55,267.02c4.16,2.5,3.36,6.83,3.16,10.41-.21,3.66-1.89,7.23-2.92,10.84-1.12-.37-2.24-.75-3.35-1.12,1.77-5.85,4.21-11.63,1.92-17.91l1.2-2.21Z"/><path class="cls-1" d="M156.11,92.77h5.7c.46,1.69,.42,2.77,.91,3.11,3.24,2.26,6.69,4.22,9.85,6.58,1.45,1.09,2.38,2.87,3.22,3.92-6.09-3.87-12.42-7.87-18.7-11.95-.48-.31-.59-1.21-.87-1.84l-.1,.18Z"/><path class="cls-1" d="M254.42,319.9c-.85,1.29-2.37,2.57-2.37,3.86,0,1.46,1.37,2.92,2.18,4.47-4.94,1.57-1.72,7.15-3.94,10.88,0-6.72-.07-13.14,.12-19.55,.02-.64,1.66-1.22,2.55-1.83,.49,.73,.97,1.45,1.46,2.18Z"/><path class="cls-1" d="M150.34,192.11c-.05-2.62-1.05-3.61-3.92-3.17-2.36,.36-4.86-.21-7.32-1.26,1.97-.2,3.95-.41,6.59-.68-1.06-.93-1.77-1.55-3.29-2.88,2.49-.16,3.97-.25,5.45-.35,.28-.44,.56-.88,.84-1.32-2.72-2.18-5.43-4.35-8.26-6.61h6.54c.14-.42,.28-.83,.42-1.25-3.89-1.58-7.77-3.16-11.66-4.74,.1-.31,.19-.62,.29-.94,3.88,1.12,7.76,2.24,12.05,3.48,.51-1.47,1.02-2.93,1.53-4.4-3.03-1.04-5.7-1.96-9.12-3.14,4.62-1.1,9.37,.56,11.64-4.31,1.2-2.58,2.54-5.09,4.13-8.26,1.61-.08,4.86-.1,3.15-4.23,4.2-2.17,8.24-4.59,12.54-6.39,3.61-1.51,4.9-3.68,3.71-6.65,2.01,1.18,4.24,2.49,6.47,3.79,.8-2.16,1.6-4.33,2.67-7.21,1.94,2.96,3.36,5.24,4.94,7.4,.24,.33,1.24,.11,2.04,.15-.48-4.3-.95-8.43-1.42-12.57,1.06,7.76,3.3,14.48,11.56,17.24,1.14-2.82,2.29-5.68,3.45-8.53,.14,.05,.28,.1,.41,.14-.75,3.41-1.51,6.83-2.26,10.24,.34,.18,.69,.35,1.03,.53,3.71-2.88,7.41-5.76,11.29-8.78-.33,1.02-.34,2.5-1.07,3.09-6.5,5.21-12.96,10.37-21.96,10.74-6.79,.28-13.03,.25-18.72-4.68-3.45-2.98-9.53,1.15-9.92,6.14-.39,4.97-2.06,8.12-5.53,10.32,.91,3.01,1.83,6.04,2.74,9.07,.22,.31,.43,.63,.65,.94,.04,.71-.21,1.76,.17,2.09,6.97,6.03,7.11,18.44-.03,23.87-1.67,1.27-4.14,1.61-6.31,2.08-13.99,3.05-25.82,9.87-36.34,19.62,4.17-4.45,8.34-8.9,12.82-13.67-2.42,.3-4.47,.56-5.88,.74,5.5-2.32,11.52-4.87,17.54-7.41,2.13-1.78,4.25-3.56,6.38-5.33,.06-.67,.13-1.34,.19-2.02,0-.33-.08-.64-.21-.94Zm49.16-44.36c-5.64-6.85-14.91-8.9-22.48-4.96,5.37,6.08,14.97,8.2,22.48,4.96Z"/><path class="cls-1" d="M326.5,147.88c-1.8,2.64-2.87,5.96-5.01,6.96-3.44,1.58-5.68-1.6-7.32-4.36-2.36-3.98-2.48-8.22-.42-12.34,1.86-3.72,5.51-4.38,7.9-1.02,2.1,2.95,3.08,6.69,4.85,10.76Zm-5.93,5.09c3.8-2.3,4.68-10.96,.62-14.14-.8-.63-2.52-.52-3.6-.14-.46,.16-.69,2-.44,2.92,1.04,3.88,2.3,7.69,3.42,11.35Z"/><path class="cls-1" d="M179.99,332.84c-4.16,9.39-8.41,19.1-12.84,28.73-.5,1.1-2.06,1.71-3.92,3.16,1.43-14.13,7.23-24.31,16.75-31.89Z"/><path class="cls-1" d="M193.42,287.14c1.12,.37,2.24,.75,3.35,1.12-3.69,10.58-7.37,21.16-11.11,31.73-.07,.19-.91,.11-1.75,.19,.81-11.8,3.28-22.94,9.5-33.04Z"/><path class="cls-1" d="M234.86,395.27c-7.14,12.79-13.87,24.86-20.48,36.72-1.6-3.89,.17-15.68,4.29-17.47,7.25-3.15,7.8-11.02,12.93-15.39,1.07-.91,1.85-2.17,3.26-3.86Z"/><path class="cls-1" d="M157.82,486.4c10.16,2.05,14.86-6.91,23.3-11.43-1.36,1.99-1.96,2.87-2.57,3.76,.25,.23,.49,.45,.74,.68,2.48-2.7,4.96-5.39,7.38-8.02-1.94,9.39-19.52,18.79-28.85,15.02Z"/><path class="cls-1" d="M156.87,337.67c10.43-3.19,18.27-8.19,24.21-16.02-3.19,10.12-14.29,17.56-24.21,16.02Z"/><path class="cls-1" d="M105.92,279.13c.7-5.8,3.79-9.41,9.42-10.82,9.39-2.37,11.88-7.54,8.1-16.76-.52-1.28-1.24-2.47-1.53-3.82,4.96,4.31,4.89,9.75,3.61,15.58-1.02,4.67-4.54,5.8-8.44,6.37-5.77,.84-9.07,4.38-11.18,9.45Z"/><path class="cls-1" d="M155.34,368.1c-1,1.67-1.69,3.66-3.05,4.95-7.93,7.52-14.97,15.55-17.02,26.82,2.07-13.54,9.32-23.76,20.12-31.71l-.06-.06Z"/><path class="cls-1" d="M255.66,333.65c1.98,9.63-3.93,18.1-7.06,27.36-.38-.1-.76-.2-1.14-.31,2.83-9.34,5.67-18.69,8.2-27.05Z"/><path class="cls-1" d="M45.78,364.96c-1.73-3.58-4.26-7.01-4.98-10.79-.87-4.56-.21-9.41-.21-14.3,1.7,8.55,3.35,16.88,5.01,25.21l.18-.13Z"/><path class="cls-1" d="M108.78,456.23c1.28-2.91,2.13-6.13,3.93-8.67,3.72-5.26,6.75-10.58,5.88-17.38,2.29,5.13,2.12,9.61-1.72,14.15-3.02,3.57-5.03,7.99-7.49,12.03l-.6-.13Z"/><path class="cls-1" d="M170.92,216.39c.72,2.36,1.45,4.72,2.12,6.9,.04,0-.84-.12-2.16-.31,.2,1.11,.35,1.94,.49,2.71h-19.1c-.02-.31-.04-.62-.06-.93,3.08,0,6.16-.03,9.25,0,6.21,.07,9.11-2.56,9.47-8.39Z"/><path class="cls-1" d="M61.47,384.33c1.05,4.92,2.85,13.42,4.64,21.85-7.98-6.7-1.05-17.7-4.64-21.85Z"/><path class="cls-1" d="M164.46,382.67c.37-5.52,.71-10.73,1.14-17.17,1.31,1.34,3.17,2.37,3.16,3.39-.02,2.5-.73,5.05-1.48,7.48-.6,1.95-1.66,3.75-2.82,6.29Z"/><path class="cls-1" d="M207.58,347.93c5.66,5.99,6.36,9.68,3.09,13.33-1.11-4.09-2.31-8.52-3.51-12.94,.14-.13,.28-.26,.41-.38Z"/><path class="cls-1" d="M150.34,192.11c.13,.3,.2,.61,.21,.94-6.25,1.23-12.51,2.46-18.76,3.7-.1-.48-.19-.96-.29-1.45,6.28-1.06,12.56-2.12,18.84-3.19Z"/><path class="cls-1" d="M151.16,480.98c7.04,.82,13.7,.21,19.8-5.74-4.12,6.76-10.84,8.55-19.8,5.74Z"/><path class="cls-1" d="M150.36,195.06c-2.13,1.78-4.25,3.56-6.38,5.33-2.11-.43-4.23-.86-7.1-1.44,4.94-1.42,9.21-2.66,13.48-3.89Z"/><path class="cls-1" d="M154.83,261.91c5.36,1.04,11.06,1.54,12.65,7.76-1.68-1.43-3.48-3.53-5.76-4.73-2.17-1.14-4.84-1.33-7.28-1.93,.13-.37,.26-.74,.4-1.1Z"/><path class="cls-1" d="M207.17,348.32c-1.32-2.85-2.88-5.61-3.91-8.57-1.2-3.46-1.94-7.08-2.88-10.63l-.03,.03c1.28,2.42,2.85,4.73,3.79,7.28,1.38,3.75,2.32,7.66,3.45,11.51-.14,.13-.28,.26-.41,.38Z"/><path class="cls-1" d="M155.41,368.16c2.11-6.54,4.22-13.09,6.33-19.63,.45,.17,.9,.33,1.34,.5-2.58,6.36-5.16,12.72-7.74,19.08l.06,.06Z"/><path class="cls-1" d="M51.08,369.38c.48-6.71,.96-13.42,1.45-20.13,.34,0,.68,0,1.02,0-.23,3.37-.48,6.74-.69,10.11-.21,3.36-.38,6.73-.57,10.09-.41-.02-.81-.05-1.22-.07Z"/><path class="cls-1" d="M162.02,173.06c-.22-.31-.43-.63-.65-.94,.22,.31,.43,.63,.65,.94Z"/><path class="cls-1" d="M133.24,89.43c-.28,1.97-.2,4.1-.94,5.88-.82,1.99-2.15,4.88-3.67,5.17-1.68,.32-4.38-1.42-5.71-3.02-6.77-8.16-7.97-17.76-5.93-27.81,.35-1.72,2.52-4.12,4.05-4.27,1.83-.19,4.96,1.22,5.63,2.77,2.95,6.77,5.21,13.84,7.72,20.8-.38,.16-.76,.33-1.15,.49Zm-7.29,4.22c4.1,.47,5.9-1.24,5.19-4.79-1.13-5.66-2.17-11.45-4.29-16.76-.79-1.98-4.52-2.79-6.92-4.13-.06,2.6-.12,5.2-.15,7.8,0,.3,.2,.67,.42,.89,4.85,4.52,5.44,10.51,5.74,17Z"/><path class="cls-1" d="M42.17,193.04c2.12-2.54,4.03-4.83,6.39-7.66,.73,5-2.03,8.09-6.39,7.66Z"/><path class="cls-1" d="M221.9,285.99c-.79-1.94-1.52-3.91-2.39-5.81-1.89-4.14-3.91-8.3-1.09-12.77,2.16-3.43,5.03-5.79,9.1-5.08-1.88,.97-4.45,1.65-6.01,3.29-1.59,1.67-2.84,4.22-3.08,6.51-.43,4,1.93,5.21,10.91,6.27-1.44,1.46-2.68,2.73-3.93,4,.03,.02,.05,.05,.08,.07-1.2,1.17-2.4,2.33-3.6,3.5v.02Z"/><path class="cls-1" d="M242.19,227.81v9.72c-3.93-2.65-4.02-5.74,0-9.72Z"/></g></g></svg>